<svg width="18" height="17" viewBox="0 0 18 17" fill="none" xmlns="http://www.w3.org/2000/svg">
<g clip-path="url(#clip0_4_42949)">
<path d="M13.7964 7.84963L6.37951 0.432884C6.20797 0.261205 5.97897 0.166626 5.7348 0.166626C5.49063 0.166626 5.26163 0.261205 5.09009 0.432884L4.54389 0.97895C4.18847 1.33477 4.18847 1.91309 4.54389 2.26837L10.772 8.4965L4.53698 14.7315C4.36544 14.9032 4.27072 15.1321 4.27072 15.3761C4.27072 15.6204 4.36544 15.8493 4.53698 16.0211L5.08318 16.567C5.25486 16.7387 5.48372 16.8333 5.72789 16.8333C5.97206 16.8333 6.20106 16.7387 6.3726 16.567L13.7964 9.14352C13.9683 8.9713 14.0628 8.74135 14.0622 8.49691C14.0628 8.25152 13.9683 8.02171 13.7964 7.84963Z" fill="#B1B1B1"/>
</g>
<defs>
<clipPath id="clip0_4_42949">
<rect width="16.6667" height="16.6667" fill="white" transform="translate(0.83316 0.166626)"/>
</clipPath>
</defs>
</svg>
