<svg width="21" height="21" viewBox="0 0 21 21" fill="none" xmlns="http://www.w3.org/2000/svg">
<g clip-path="url(#clip0_4_43476)">
<path d="M0.448321 10.3743C0.447829 12.1387 0.912445 13.8615 1.79591 15.38L0.363831 20.5683L5.71479 19.1761C7.1948 19.9756 8.85304 20.3945 10.5381 20.3946H10.5426C16.1054 20.3946 20.6337 15.903 20.6361 10.3822C20.6371 7.70693 19.5882 5.19133 17.6823 3.29872C15.7767 1.40628 13.2424 0.363526 10.5422 0.362305C4.97866 0.362305 0.4507 4.8537 0.448403 10.3743" fill="url(#paint0_linear_4_43476)"/>
<path d="M0.088138 10.3711C0.0875638 12.199 0.568832 13.9834 1.48379 15.5563L0.000366211 20.9306L5.5432 19.4885C7.07042 20.3147 8.78993 20.7504 10.5396 20.751H10.5441C16.3066 20.751 20.9975 16.0978 21 10.3794C21.001 7.60802 19.9142 5.00199 17.9403 3.04158C15.9661 1.08142 13.3411 0.00113953 10.5441 0C4.78073 0 0.0905169 4.65256 0.08822 10.3711H0.088138ZM3.38901 15.2854L3.18205 14.9594C2.31205 13.5868 1.85284 12.0005 1.8535 10.3717C1.85539 5.61864 5.75377 1.75163 10.5474 1.75163C12.8689 1.7526 15.0505 2.65056 16.6914 4.27977C18.3323 5.90914 19.2352 8.07507 19.2346 10.3787C19.2325 15.1318 15.334 18.9993 10.5441 18.9993H10.5407C8.98106 18.9985 7.45145 18.5829 6.11749 17.7975L5.80003 17.6107L2.5108 18.4664L3.38901 15.2853V15.2854Z" fill="url(#paint1_linear_4_43476)"/>
<path d="M7.93066 6.03525C7.73494 5.60361 7.52896 5.5949 7.34284 5.58733C7.19043 5.58082 7.01619 5.58131 6.84213 5.58131C6.6679 5.58131 6.38481 5.64634 6.14553 5.90559C5.906 6.16507 5.23106 6.79214 5.23106 8.06753C5.23106 9.34299 6.16727 10.5756 6.29778 10.7487C6.42845 10.9215 8.10514 13.6225 10.7606 14.6616C12.9675 15.5251 13.4166 15.3534 13.8956 15.3101C14.3747 15.2669 15.4414 14.6832 15.659 14.0778C15.8768 13.4726 15.8768 12.9538 15.8115 12.8454C15.7462 12.7373 15.572 12.6725 15.3107 12.5429C15.0494 12.4132 13.7649 11.7861 13.5255 11.6996C13.286 11.6131 13.1118 11.57 12.9376 11.8295C12.7634 12.0887 12.2631 12.6725 12.1106 12.8454C11.9582 13.0186 11.8057 13.0402 11.5446 12.9106C11.2831 12.7805 10.4418 12.5071 9.44354 11.624C8.66688 10.9369 8.14254 10.0883 7.99013 9.82876C7.83772 9.5696 7.97381 9.42911 8.10481 9.29994C8.2222 9.18378 8.36616 8.99723 8.49691 8.84591C8.62718 8.69452 8.67065 8.5865 8.75777 8.41362C8.84496 8.24057 8.80133 8.08918 8.73611 7.95952C8.67065 7.82985 8.16297 6.54788 7.93066 6.03533" fill="white"/>
</g>
<defs>
<linearGradient id="paint0_linear_4_43476" x1="10.5" y1="20.5683" x2="10.5" y2="0.362305" gradientUnits="userSpaceOnUse">
<stop stop-color="#1FAF38"/>
<stop offset="1" stop-color="#60D669"/>
</linearGradient>
<linearGradient id="paint1_linear_4_43476" x1="10.5002" y1="20.9306" x2="10.5002" y2="0" gradientUnits="userSpaceOnUse">
<stop stop-color="#F9F9F9"/>
<stop offset="1" stop-color="white"/>
</linearGradient>
<clipPath id="clip0_4_43476">
<rect width="21" height="21" fill="white"/>
</clipPath>
</defs>
</svg>
